<svg xmlns="http://www.w3.org/2000/svg" width="21" height="21" fill="none">
  <g fill="#C68CB9" clip-path="url(#a)">
    <path d="M21.018 10.075a10.245 10.245 0 0 0-3.174-7.209A10.246 10.246 0 0 0 10.52.002a10.244 10.244 0 0 0-7.324 2.864A10.245 10.245 0 0 0 .02 10.075v.017a9.91 9.91 0 0 0 3.294 7.327v2.539A1.04 1.04 0 0 0 4.344 21c.19 0 .378-.053.543-.156l2.04-1.275a10.78 10.78 0 0 0 3.572.607h.015l.202.002c2.67 0 5.195-1.013 7.128-2.866a10.245 10.245 0 0 0 3.174-7.209v-.028Zm-4.026 6.347a9.025 9.025 0 0 1-6.46 2.523h-.034c-1.128 0-2.238-.198-3.299-.587a.896.896 0 0 0-.788.081l-1.865 1.165V17.27a.901.901 0 0 0-.31-.68 8.677 8.677 0 0 1-2.984-6.495 9.019 9.019 0 0 1 2.795-6.338 9.027 9.027 0 0 1 6.46-2.523h.025a9.02 9.02 0 0 1 6.46 2.523 9.02 9.02 0 0 1 2.794 6.333 9.02 9.02 0 0 1-2.794 6.333Z"/>
    <path d="M12.62 5.914c-.625 0-1.198.197-1.702.587a3.248 3.248 0 0 0-.399.366 3.235 3.235 0 0 0-.399-.366 2.726 2.726 0 0 0-1.702-.587c-.831 0-1.596.333-2.153.938-.545.59-.845 1.394-.845 2.261 0 1.876 1.438 3.1 3.428 4.797.327.278.697.594 1.081.93a.895.895 0 0 0 1.18 0c.387-.338.756-.653 1.082-.93 1.99-1.696 3.428-2.921 3.428-4.797 0-.867-.3-1.67-.845-2.261a2.895 2.895 0 0 0-2.153-.938Zm-1.228 7.058c-.266.227-.561.478-.873.749-.31-.27-.605-.521-.872-.749-1.868-1.591-2.995-2.552-2.995-3.859 0-1.14.742-1.968 1.766-1.968.351 0 .662.108.949.33.264.204.45.467.56.651.124.208.35.336.592.336a.692.692 0 0 0 .592-.336c.11-.184.297-.447.56-.651a1.5 1.5 0 0 1 .95-.33c1.023 0 1.766.828 1.766 1.968 0 1.307-1.127 2.268-2.995 3.86Z"/>
  </g>
  <defs>
    <clipPath id="a">
      <path fill="#fff" d="M0 0h20.959v21H0z"/>
    </clipPath>
  </defs>
</svg>
