<svg width="21" height="21" viewBox="0 0 21 21" fill="none" xmlns="http://www.w3.org/2000/svg">
<g clip-path="url(#clip0_1_2975)">
<path d="M21.0183 10.0748C20.9555 7.32768 19.8283 4.76757 17.8444 2.86627C15.8633 0.967692 13.2618 -0.0490477 10.5194 0.00158102C7.77599 -0.0493681 5.17566 0.967852 3.19458 2.86627C1.2106 4.76757 0.0834733 7.32768 0.020668 10.0748L0.0205078 10.0834V10.0921C0.0349274 12.8919 1.23351 15.5536 3.3149 17.4191V19.9575C3.3149 20.4501 3.65889 20.8794 4.13281 20.978C4.20298 20.9926 4.27364 20.9998 4.34381 20.9998C4.53463 20.9998 4.72209 20.9465 4.88695 20.8435L6.927 19.5691C8.07752 19.9719 9.27835 20.176 10.4989 20.176H10.5139C10.5816 20.1773 10.6485 20.1779 10.7158 20.1779C13.3862 20.1778 15.9107 19.1645 17.8444 17.3115C19.8283 15.4102 20.9555 12.8501 21.0183 10.103L21.0186 10.0889L21.0183 10.0748ZM16.9922 16.4223C15.2452 18.0964 12.9502 18.9915 10.5316 18.9446L10.5183 18.9444C10.5117 18.9444 10.5053 18.9444 10.4989 18.9444C9.36967 18.9444 8.25953 18.7472 7.19937 18.3583C6.93565 18.2616 6.64822 18.291 6.41094 18.4392L4.54649 19.604V17.2692C4.54649 17.0088 4.43322 16.761 4.23567 16.5892C2.35456 14.9539 1.26748 12.587 1.25226 10.0943C1.30946 7.67856 2.30168 5.42782 4.04677 3.75564C5.79362 2.08136 8.08938 1.18671 10.5072 1.23333L10.5194 1.23365L10.5316 1.23333C12.9518 1.18575 15.2452 2.08136 16.9922 3.75564C18.7357 5.42654 19.7277 7.67535 19.7865 10.089C19.7279 12.5025 18.7357 14.7514 16.9922 16.4223Z" fill="#C68CB9"/>
<path d="M12.6209 5.91382C11.9946 5.91382 11.4218 6.11137 10.9183 6.50085C10.7773 6.6098 10.644 6.73237 10.5192 6.86743C10.3944 6.73221 10.2612 6.6098 10.1202 6.50085C9.6165 6.11137 9.04372 5.91382 8.41759 5.91382C7.5867 5.91382 6.82214 6.24691 6.26459 6.85173C5.71985 7.44261 5.41992 8.24578 5.41992 9.1132C5.41992 10.9887 6.85771 12.2139 8.84777 13.9098C9.17462 14.1884 9.5452 14.5044 9.92908 14.8399C10.0923 14.9829 10.3019 15.0616 10.5192 15.0616C10.7364 15.0616 10.946 14.9829 11.1091 14.8402C11.496 14.5016 11.8651 14.1871 12.1909 13.9096C14.1808 12.2139 15.6186 10.9887 15.6186 9.1132C15.6186 8.24562 15.3185 7.44261 14.7737 6.85157C14.2162 6.24691 13.4516 5.91382 12.6209 5.91382ZM11.392 12.9722C11.1259 13.1991 10.8309 13.4504 10.5192 13.7206C10.2093 13.4519 9.91354 13.1999 9.64662 12.9724C7.7788 11.3808 6.65151 10.4201 6.65151 9.1132C6.65151 7.97293 7.39428 7.14541 8.41759 7.14541C8.76943 7.14541 9.07993 7.25324 9.36672 7.47498C9.63092 7.67941 9.81741 7.94185 9.92748 8.12626C10.0512 8.33358 10.2779 8.46224 10.5192 8.46224C10.7604 8.46224 10.9873 8.33358 11.111 8.1261C11.2211 7.94185 11.4076 7.67941 11.6718 7.47498C11.9586 7.25324 12.2689 7.14541 12.6209 7.14541C13.6442 7.14541 14.387 7.97293 14.387 9.1132C14.387 10.4201 13.2597 11.3808 11.392 12.9722Z" fill="#C68CB9"/>
</g>
<defs>
<clipPath id="clip0_1_2975">
<rect width="20.959" height="21" fill="white"/>
</clipPath>
</defs>
</svg>
