<svg xmlns="http://www.w3.org/2000/svg" width="14504" height="2632" version="1.0" viewBox="0 0 10878 1974" fill="#622565">
  <path d="M273.6 2.1c-7.7 1.8-17 7.3-23.7 13.9-11.9 11.7-17.6 27.6-15.1 42.3 2.5 14.3 2.2 13.9 51.1 62.9l44.5 44.8-4.9 5.2c-2.7 2.9-39.6 40-82 82.5l-77 77.2-44-43.8c-42-41.8-44.4-44-51.9-47.7-7-3.4-8.8-3.9-17.2-4.2-7.4-.4-10.7 0-16.2 1.7-23.5 7.1-40 32.2-36.3 55.2 2.3 14.2 3 15 51.8 63.9L97 400.6l-43.9 43.7c-41.7 41.5-44.2 44.2-47.8 51.4-3.6 7.4-3.8 8.2-4.2 19.4-.3 12.8.8 18.2 5.6 26.9 1.6 2.7 19.9 21.9 46.2 48.2L96.4 634l-43.5 43.7c-41.8 42-43.8 44.1-47.5 51.7-3.7 7.6-3.9 8.6-4.3 19.2C.8 761 2.2 767.9 6.8 776c1.5 2.6 20.7 22.8 46.1 48.3L96.4 868l-44 44.3C3.8 961 3.4 961.5.9 976.2c-5.1 30.7 25.8 61.7 56.8 56.9 14.5-2.2 15.3-2.9 64.1-51.5l44.2-44.1 82.3 82.3 82.2 82.2-44.2 44.2c-47 47.2-47.6 47.9-50.9 61.1-5.4 20.7 7.7 45.1 29.6 55.6 7.3 3.5 7.8 3.6 19.5 3.6 12 0 12.1 0 20-3.9 7.7-3.7 9.8-5.7 51.8-47.5l43.7-43.6 82 82 81.9 81.9-43.7 44.1c-46 46.2-47.6 48.1-50.7 60-7.7 29.7 17.6 61.5 49 61.5 8.7 0 17.5-2.5 24.2-6.9 2.7-1.6 24.1-22.4 47.8-46.1l43-43 82.2 82.2 82.3 82.3-44.3 44.5c-42.8 43-44.4 44.8-47.7 52-8.2 18.2-3.9 38.2 11.4 53.6 15.7 15.7 36.2 19.8 54.5 10.8 7.2-3.5 10-6.1 51.6-47.5l44-43.9 82.3 82.3 82.2 82.2-5.1 5c-2.8 2.8-16.2 17.1-29.7 32-13.5 14.8-30.1 32.7-36.9 39.6-13.7 14.2-17.5 19.6-20.3 28.8-6.2 19.9 3.1 42.8 22.4 55.3 15.5 10 35.6 10.4 50.4.9 6-3.8 19.6-17.7 51.4-52.6 13.5-14.9 27.5-29.9 31-33.3l6.5-6.4 14.9 16.8c8.2 9.3 22.1 24.9 30.9 34.9 8.8 9.9 20.9 23 27 29.2 9.4 9.6 12.1 11.7 18.9 14.9 18.6 8.8 39.6 4.4 54.9-11.5 10.8-11.1 15.2-22.5 14.5-37.1-.3-7.3-.9-9.7-4-16.2-3-6.3-5.9-9.9-16.9-21.4-10.5-11.1-47.5-52.3-67.8-75.7l-3.4-3.9 82.3-81.9 82.4-81.9 44.6 44.3c37.2 37 45.4 44.7 50.1 47 18.9 8.9 39.4 5.1 54.9-10.3 16.5-16.4 20.4-38.2 10.3-57.4-2-3.7-15-17.4-46.7-49.3l-43.9-44.2 82.2-82.2 82.2-82.3 45.2 45c41.9 41.7 45.7 45.3 51.7 47.9 9 4 21.9 4.7 31.7 1.6 18.4-5.6 33.1-22.3 36.3-41.2 1.5-8.9.4-17-3.6-26.1-2.5-5.8-6.4-10-47.3-51l-44.5-44.8 30-30.2c16.5-16.7 34.9-35.4 40.9-41.7 6.1-6.2 29.6-29.6 52.3-51.9l41.3-40.5 43.7 43.5c26.1 26 45.5 44.5 48.2 46 8.5 4.8 14.3 6.1 24.8 5.6 11.8-.6 18.7-3 27.5-9.7 19.5-14.7 26.3-39.3 16.6-60-2.9-6-7.2-10.7-47.2-50.8l-44-44.2 3.9-4.3c2.1-2.4 39-39.5 81.9-82.5l78-78.3 45 44.8c41.2 41.1 45.5 45.1 51.3 47.6 9.1 4 17.2 5.1 26.1 3.6 18.9-3.2 35.7-17.9 41.2-36.2 1.7-5.5 2.1-8.8 1.7-16.2-.3-8.4-.8-10.2-4.2-17.2-3.7-7.5-5.9-9.9-47.8-52l-43.9-44.1 42.9-42.4c24.2-23.9 44.3-44.6 46.1-47.4 9.3-14.7 9.6-36.9.8-51.7-1.4-2.4-22.2-23.9-46.1-47.8l-43.6-43.5 43.9-44c41.7-41.9 44-44.4 47.6-51.8 3.6-7.2 3.9-8.6 4.3-18.6.5-11.9-.9-19-5.5-27.1-1.5-2.7-20.4-22.4-46.4-48.5l-43.9-44 42.5-42.5c23.4-23.4 44.2-44.9 46.2-47.9 7.4-11 9.4-26.5 5.2-39.4-3-9.3-10.2-19.2-18.3-25.4-9.6-7.2-16-9.5-27.6-10-11.3-.5-18.7 1.4-27.1 7-3 2-24.5 22.8-47.9 46.2l-42.5 42.5-82.2-82.2-82.3-82.3 44.8-45c40.5-40.6 45.1-45.6 47.5-51.1 10.6-24.2-.6-52.2-25.8-64.7-7.6-3.7-14.7-5-24.2-4.4-7.2.4-9.7 1.1-16.1 4.2-7.3 3.6-10.1 6.2-51.7 47.6l-44 43.9-42.5-42.6c-23.4-23.4-44.4-43.8-46.6-45.4-13.8-9.7-36.7-10.7-51.4-2.3-2.6 1.5-22.8 20.8-48.7 46.7L1569 97.5l-44.7-44.7C1496.4 25 1478 7.5 1475.5 6.2c-11.7-5.8-27.2-6.8-38.3-2.3-22.6 9-36.9 32.5-33.3 54.4 2.4 14.2 3.5 15.6 52.1 64.2l44 44-82.2 82.2-82.3 82.3-44-43.9c-42-41.9-44.4-44-51.9-47.7-7-3.4-8.8-3.9-17.1-4.2-6.7-.3-10.8 0-15.1 1.3-21.9 6.3-37.4 26.4-37.6 48.6-.1 9.5 2.1 16.9 7.1 24.4 2.3 3.7 20.7 22.8 46.5 48.5l42.6 42.5-82.2 82.2-82.3 82.3-82.2-82.2-82.3-82.3 43.9-44c41.8-42 44-44.4 47.7-51.8 3.3-6.9 3.8-9 4.2-16.6 1-20.6-10-38.7-29.5-48.3-7.9-3.9-9.2-4.3-18.3-4.6-12.1-.5-20.1 1.8-28.8 8.3-3.1 2.3-24.4 23-47.2 45.9L867.5 331l-82.2-82.2-82.3-82.3 44.4-44.5c40.8-41 44.6-45.1 47.7-51.5 3.3-6.8 3.4-7.4 3.4-19.1V39.3l-4.3-8.6C784.5 11.1 766.4.1 745.7 1.3c-7.6.4-9.9 1-16.5 4.2-7.3 3.6-10 6.1-51.7 47.6l-44 43.9L591 54.4c-23.4-23.3-44.7-44-47.5-45.8-7.7-5.1-13.1-6.8-23-7.3-10.8-.6-18.3.7-26.5 4.9-5.2 2.6-12.5 9.4-50 47.2l-43.9 44.1-44.3-44.1C329.5 27.1 309.7 8.2 307 6.7c-9.3-5.2-22.8-7.1-33.4-4.6zm274.2 195.6L516.5 229l-31.2-31.2-31.3-31.3 31.2-31.2 31.3-31.3 31.2 31.2 31.3 31.3-31.2 31.2zm1169 0-31.3 31.3-31.2-31.2-31.3-31.3 31.2-31.2 31.3-31.3 31.2 31.2 31.3 31.3-31.2 31.2zm-1272.7 82c45.7 46 47.8 47.7 59.4 50.8 6.7 1.7 18.9 1.9 25.4.4 11.7-2.7 13.1-3.8 60.1-50.6l44.5-44.3 82.3 82.3 82.2 82.2-42.5 42.5c-23.4 23.4-44.1 44.8-46 47.6-12.5 18.7-9.4 42.9 7.9 59.9 17.8 17.5 41.1 20.4 60.2 7.5 3.3-2.2 24.5-22.5 47.9-46l42-42 82.2 82.2 82.3 82.3-44.8 45c-41.5 41.6-45.1 45.5-47.7 51.5-4 9-4.7 21.8-1.7 31.7 7.3 23.8 32.5 40.4 55.5 36.5 14.3-2.5 13.9-2.2 62.9-51.1l44.8-44.5 44.2 44c48.7 48.5 49.6 49.2 64.1 51.7 32.4 5.5 64-28.1 56.6-60.2-2.7-11.7-3.8-13.1-50.8-60.4l-44.6-44.7 82.3-82.2 82.2-82.3 44.7 44.6c42.8 42.6 45.1 44.7 52 47.8 13.1 5.9 26.6 5.3 40.5-1.6 19.3-9.7 31.5-32.2 28.1-52-2.5-14.6-3.2-15.4-51.7-64.1l-44.1-44.2 82.3-82.3 82.2-82.2 44.2 44.1c25.8 25.7 46.2 45.2 48.8 46.7 9 5.2 24.8 7.2 35.9 4.6 12-2.7 13-3.6 60.1-50.5l44.5-44.4 82.3 82.3 82.2 82.2-42.5 42.5c-23.4 23.4-43.9 44.6-45.6 47.2-9.2 14.2-10.4 33.2-3.2 48.8 2.2 4.6 9.7 12.7 47.2 50.2l44.5 44.8-44.1 44.2c-34.2 34.4-44.7 45.5-46.7 49.5-7.3 14.7-7.5 31.5-.4 45.8 2.5 5.1 9.8 12.8 47.1 50.3l44.2 44.2-82.2 82.2-82.3 82.3-44.2-44.1c-48.7-48.5-49.5-49.2-64.1-51.7-31-5.3-62.3 25.9-57 56.9 2.5 14.7 3.2 15.5 51.7 64.2l44.1 44.2-82.3 82.3-82.2 82.2-44.2-44.1c-26.4-26.3-46.1-45.2-48.8-46.7-18.3-10.3-41.3-6.3-57.7 9.9-16.2 16.2-19.7 41.7-7.9 59 1.4 2.1 18.2 19.6 37.3 38.8 19.2 19.3 38.6 39.1 43.3 43.9l8.4 8.8-81.9 81.9-82 82-44-43.9c-42.2-42-44.3-44-52-47.7-7.8-3.9-8-3.9-19.5-3.9h-11.7l-8.7 4.3c-18.8 9.3-29.8 26.3-29.8 45.7 0 9.2 2.1 16.6 7.1 24 2.3 3.7 20.7 22.8 46.5 48.5l42.6 42.5-82.2 82.2-82.3 82.3-82.2-82.2-82.3-82.3 44.3-44.5c42.8-43 44.4-44.7 47.7-52 8.1-18 3.8-38.9-11.2-53.8-16.9-17-41.7-20.1-60.2-7.7-2.8 1.9-24.2 22.6-47.6 46l-42.5 42.5-82.2-82.2-82.3-82.3 44.4-44.5c52.9-53.1 51.1-50.6 51.1-70.6v-12.1l-4.2-8.4c-13.7-27.6-45.6-38-69.8-22.8-2.7 1.7-24.4 22.4-48 46l-43 42.9-82-82-82-82 42.6-42.7c23.4-23.6 44-44.9 45.8-47.6 10-14.9 9.9-35.2-.3-51.1-11.4-17.8-33.5-27.9-51.7-23.6-13.1 3.1-14.2 4-61.7 51.3l-44.2 44.2-82.2-82.2-82.3-82.3 44.1-44.2c39.3-39.5 44.5-45 47.3-50.8 6.3-13.1 6.3-30.5-.1-43.9-2.8-6-7.3-10.8-47.2-50.9l-44-44.2 44-44.3c39.4-39.5 44.5-44.9 47.3-50.7 6.4-13.4 6.3-30.5-.1-43.9-2.9-5.9-7.8-11.2-47.2-50.9L235.5 400l82-82c45.1-45.1 82.3-82 82.6-82 .3 0 20.1 19.7 44 43.7zM197.5 486l31 31-31.3 31.3-31.2 31.2-31.2-31.2-31.3-31.3 31-31c17-17 31.2-31 31.5-31 .3 0 14.5 14 31.5 31zm1870.3 62.7-31.3 31.3-31.2-31.2-31.3-31.3 31.2-31.2 31.3-31.3 31.2 31.2 31.3 31.3-31.2 31.2zM197.5 720l31 31-31.3 31.3-31.2 31.2-31.2-31.2-31.3-31.3 31-31c17-17 31.2-31 31.5-31 .3 0 14.5 14 31.5 31zm1871 0 31 31-31.3 31.3-31.2 31.2-31.2-31.2-31.3-31.3 31-31c17-17 31.2-31 31.5-31 .3 0 14.5 14 31.5 31zM6079.7 33.2c-.3 1.3-9.9 54.9-21.2 119.3-11.4 64.3-20.8 117.1-20.9 117.2-.1.1-4.2-3.7-9.2-8.6-23.1-22.8-52.3-34.7-94-38.2-41.8-3.5-85.8 5-116.3 22.4-45.4 26.1-74.5 68.6-89.6 131.2-3.6 14.7-26.7 145.2-28.6 161.3-1.5 12.8-.6 45.5 1.6 55.2 8.6 38.5 30.8 66.6 67.3 84.9 27.5 13.8 55.1 19.8 95.3 20.8 58.7 1.4 103.6-9.8 142.6-35.7 41.2-27.2 68.4-67.9 81.7-122.2 1.9-7.6 90.6-506.5 90.6-509.3 0-.3-22.2-.5-49.4-.5h-49.4l-.5 2.2zm-133.2 276.3c28.8 4.7 53.7 21.4 63.9 43 4.7 9.9 6.1 16.9 6 31-.1 12.3-.8 16.7-12.7 80.5-7 37.1-13.6 70.9-14.8 75-10.1 36.5-37.1 61.5-76.3 71-26 6.3-58.8 4-79.1-5.4-23.8-11.1-35.5-30.1-35.5-57.6 0-9.3 1.7-20.4 13-84.1 7.2-40.4 13.9-76.8 14.9-80.9 10.3-41.3 37-66.3 77.5-72.5 11.2-1.8 32.3-1.8 43.1 0zM3059 66.5c0 .2-24.3 138.7-54 307.7-29.6 169-54.2 309.2-54.6 311.5l-.7 4.3h106.1l.5-2.8c.3-1.5 16.4-94.3 35.7-206.2 19.4-111.9 35.6-203.8 35.9-204.2.3-.4 26 70.9 57 158.5s56.6 159.5 56.8 160c.3.4 51.3-71.1 113.5-158.8 62.1-87.8 113.1-159.5 113.3-159.3.2.2-69.6 398.6-71.9 410l-.5 2.8h106.4l54.3-309.8c29.9-170.3 54.6-310.7 54.9-312l.5-2.2h-103l-115.3 163.4c-63.5 89.9-115.7 163.5-116 163.5-.3.1-25.4-70.4-55.9-156.7-30.4-86.2-56.4-159.7-57.8-163.5l-2.4-6.7h-51.4c-28.3 0-51.4.2-51.4.5zM3891 222.6c-1.9.2-7.8.9-13 1.5-72.2 8.2-125 53.3-150 127.9-6.5 19.5-9.3 32.5-21.4 102-14.1 80.5-13.4 75.8-14.6 93.6-4.1 60.3 16.7 106.1 59.7 131.6 21.4 12.7 45.4 18.6 78.8 19.5 58.7 1.5 103.1-14.1 140.6-49.4 3.8-3.6 7.1-6.4 7.2-6.2.2.2 1.1 3.3 2.1 6.9 6.3 23.8 22.3 39.7 46.3 46.1 11.1 3 33.7 3.7 49.8 1.5 13.5-1.9 35.7-7.1 48.5-11.4l8.5-2.9 7.1-39.9c3.9-21.9 7.1-40 7-40.1-.1-.2-5.4.9-11.7 2.2-30.7 6.7-49.3 3.5-56-9.6-2.6-5.3-3.9-15.9-2.9-25.5.7-5.9 56.4-321 59.6-336.7l.6-2.7-38.7.2-38.6.3-11.2 24.3-11.2 24.3-2-2.7c-7.3-10-14.6-18.2-20.6-23.2-19.1-15.8-42.5-25.4-72.2-29.7-9.9-1.5-44.6-2.7-51.7-1.9zm48.6 86.9c35.2 6.1 60.6 27.2 68 56.5 3.6 13.8 2.7 21.6-9.4 89.5-11.7 64.9-13.2 71.8-18.7 85-14.2 34.3-43.1 59.9-77.8 68.9-35.3 9.2-68.1 3.3-88.5-15.9-8.9-8.3-14.1-16.6-17.9-28-2.4-7.2-2.7-9.5-2.6-22.5 0-14.2.2-15.9 13.1-87.5 8.8-49.1 14.1-76 16.1-82.2 12-36.5 37.1-58 74.5-63.8 11.5-1.8 32.6-1.8 43.2 0zM4491.5 222.6c-75.9 5.9-131.1 34.7-165.8 86.4-13.4 20.1-26.1 50.5-31.6 76-1.1 5.2-20.5 115-43.1 244-22.5 129-41.3 235.7-41.6 237.2l-.6 2.8h99.2l.5-2.3c.3-1.2 8.8-49.9 19-108.2 10.2-58.3 18.7-106.4 18.8-106.9.2-.5 2.2 1.4 4.6 4.3 9.2 10.9 27.6 23.7 44.1 30.4 19.7 8.1 38.8 11.7 66.6 12.4 39.9 1.1 68.5-4.5 97.9-19.2 42.2-21.1 71.4-56.6 89.4-108.8 6.6-19.1 9.5-32.9 22.1-104.8 14.1-80.4 15-86.5 15-105.2 0-39.9-11.6-69.8-36.3-93.4-24.5-23.4-56.3-37.1-99.2-42.8-11.5-1.5-48.5-2.7-59-1.9zm32 86.4c12 1.8 19.7 4 29.5 8.7 7.8 3.7 10.9 6 17.1 12.2 11.9 11.9 16.2 23.3 16.2 42.1-.1 8.9-2.1 22-13.6 87-7.5 42.1-14.8 80.5-16.2 85.4-12.1 41.8-40.5 64.4-86.2 68.6-37.2 3.4-71.9-9.2-89-32.3-5.5-7.6-7.5-11.4-10.5-20.3-2-6-2.3-8.8-2.3-21.9.1-14.8.3-16.1 12.3-82.5 6.7-37.1 13.2-70.8 14.3-74.8 11.6-41.4 41.3-66.4 85.5-72.1 9.7-1.2 34.5-1.3 42.9-.1zM5001.5 223.1c-84.2 8.3-140.7 60.8-163.1 151.4-3.3 13.4-24.4 131-28 156-2.5 17.6-2.3 47.3.4 62.5 5.1 28 16.1 50 34.2 68 25.8 25.7 61.1 38 109.2 38 55.7 0 99.7-16.7 135.5-51.3 2.9-2.8 5.4-4.9 5.6-4.6.2.2 1.1 3.2 2 6.7 5.3 19.5 17.4 34.6 33.5 41.8 10.9 4.9 18.9 6.6 34.7 7.1 22.6.8 45.6-2.8 72.9-11.5l12-3.7 7.1-40c3.9-22 7.1-40.1 7-40.2 0-.1-5.7 1-12.5 2.4-16 3.4-35.8 3.8-43.2 1-4.8-1.9-11.2-7.9-12.8-12.3-2.2-5.7-3-15.4-2-24.2.7-6.7 56.8-322.9 59.6-336.5l.6-2.7-38.7.2-38.7.3-11.2 24.2c-6.1 13.3-11.3 24.3-11.6 24.3-.3 0-1.7-1.9-3.2-4.3-17.1-26.8-49.1-44.9-90.8-51.2-13-1.9-45.1-2.7-58.5-1.4zm55.1 86.4c35.2 6.1 60.7 27.2 68 56.5 3.4 13.4 2.5 22.5-7.5 78.5-13 72.5-13.8 76.6-17.3 86.8-10.5 31.4-31.8 56.3-60.3 70.5-18.2 9-43.5 13.5-63.5 11.2-12.9-1.5-20-3.4-29.9-8.2-12-5.7-24.1-17.8-29.9-29.8-5.6-11.6-7.6-22.1-6.9-36.4.7-12.8 24-146.2 28.2-161.1 5.2-18.3 17.2-38.2 28.7-47.5 13.5-11.1 28.5-17.6 47.2-20.5 11.5-1.8 32.6-1.8 43.2 0zM6463 222.7c-56.9 3.9-100.7 20.1-135.7 50.2-28.2 24.3-49.7 61.4-60.7 104.7-3.4 13.3-27.2 149.9-28.7 164.3-1.4 13.6-.7 36 1.5 48.1 4.4 24.4 15.4 45.8 32.1 62.3 24.4 24.3 56.7 38.5 102 44.9 14.2 2 64 1.7 79-.5 52.7-7.8 92.8-27.2 124-59.9 13.9-14.6 22.2-26.5 32-46.3 8.6-17.3 13.4-30.2 18-48.4 3.4-13.5 27.1-147.1 28.6-161.3 1.4-13.7.7-39.3-1.6-50.6-7.4-38-30.1-67.4-66.4-86.1-23.6-12.1-47.8-18.4-81.5-21.1-11.9-.9-31.7-1.1-42.6-.3zm33.2 86.8c19.2 2.9 32.7 9.1 43.9 20.4 11.9 11.9 16.2 23.3 16.2 42.1-.1 9-2.1 21.5-13.7 86.5-7.5 41.8-14.6 79.1-15.7 83-12.4 41.9-46.3 67.3-95.6 71.5-48.9 4.2-85.1-14.4-92.9-47.7-3.3-14.1-2-25.1 12.5-106.3 14.3-80.1 16.2-87.8 25.2-103.5 5.2-9.2 17.8-23 26.2-28.7 13-8.8 31.3-15.4 48.9-17.6 11.6-1.5 34.4-1.3 45 .3zM5159.5 1048.2c-.8 3.7-19.5 109.7-19.5 110.8 0 .7 23.2 1 70.1 1h70.1l-.6 2.7c-1.9 8.7-98.9 563.1-100.6 574.3-13.5 92.9 8.1 158.4 60.2 182.5 15.6 7.2 36.3 12.3 59.2 14.6 17.2 1.7 63.5.7 85.1-1.9 15.3-1.9 44.8-6.1 45.1-6.5.3-.3 19.2-109.2 19-109.3 0-.1-5.7.4-12.6 1.2-20.2 2.2-48.9 2.8-62.9 1.5-14.5-1.5-28.6-4.8-36.1-8.6-11.3-5.7-19.8-16.8-23.6-31-2.4-9-2.9-28.8-1.1-42.5.9-6.3 28.4-164 61.1-350.3 32.8-186.4 59.6-339.3 59.6-339.8s-54.7-.9-136-.9h-136l-.5 2.2zM5717.6 1484.3c-42.3 241-77.2 439-77.4 439.9-.4 1.7 3.2 1.8 65.7 1.8h66.1l.5-2.3c.3-1.2 15.3-87.8 33.5-192.4 18.1-104.6 33.9-193.9 35-198.5 11.5-44.8 38.5-78.5 80-99.7 22.9-11.7 46.9-17.2 75.1-17.3 22.7 0 38.6 2.8 54.8 9.6 17.8 7.5 33.9 22 41 37 6.5 13.4 7.6 19.5 7.5 39.6v17.5l-35.2 202.6c-19.4 111.5-35.2 202.9-35.2 203.3 0 .3 29.7.6 66 .6s66-.1 66-.3c0-.1 15.5-89.3 34.4-198.2 19-108.9 35.2-203.2 36.1-209.5 2.6-17.9 3.2-54.4 1-71-6.4-50.5-28.1-87.1-67.4-113.4-38.6-25.8-95-36.6-159.6-30.5-45.9 4.4-92.8 22.6-126.3 49.2-3.5 2.7-6.4 4.8-6.6 4.6-.1-.2 10.6-62.5 23.9-138.4 13.3-75.9 25.5-145.8 27.2-155.3l3-17.2h-132.2l-76.9 438.3zM6665.5 1058.2c-1.2 5.5-26.5 147.6-26.5 149.1 0 1.6 5.1 1.7 65.8 1.7h65.8l13.3-74.3c7.3-40.8 13.5-75.2 13.8-76.5l.5-2.2H6666l-.5 2.2zM3063.2 1302c-51.9 3.6-94.9 18.5-131.3 45.6-12.1 9-30.4 26.5-39.6 37.9-27.3 33.8-47.7 79.2-58.8 131-3.9 17.9-32.2 179.6-34.6 197.5-2.6 18.8-3.1 55.9-1 71 5.5 40.7 19.6 72.3 43.6 97.8 26 27.6 58.2 43.7 103 51.4 11.6 2 16.5 2.2 45 2.3 21.6 0 35.1-.4 41.5-1.3 57.3-8.2 100.5-28.2 136.6-63.4l11.1-10.8 2.1 8.1c8.5 31.4 27.2 52.6 54.7 61.8 15.9 5.3 25.2 6.4 49.5 5.8 23.5-.5 34.5-2 59.7-8.2 13.9-3.4 39.1-11.1 40.5-12.4.4-.3 4.8-23.6 9.7-51.6 5-28.1 9.3-52.1 9.6-53.4.5-2.1.3-2.3-1.7-1.7-12 3.5-31.9 6.8-44.5 7.3-21.8.9-31.9-1.9-40-11.1-6.3-7.2-7.8-13.2-7.7-31.1v-15l39.7-221.5c21.8-121.9 39.7-222.3 39.7-223.3 0-1.6-3.3-1.7-51-1.5l-51.1.3-15.1 32.5c-8.2 17.9-15.1 32.6-15.2 32.7-.1.2-2.5-3-5.3-7-22.8-32.8-57.8-54.6-103.1-64.1-23.7-5-60.2-7.4-86-5.6zm62.8 115.7c28.1 4.1 51.3 15.4 68.7 33.6 8.6 9.1 14.1 16.8 17.9 25.3 6.3 14.3 9.1 32.9 7.5 49.4-1.4 13-28.5 164.3-31.7 176.6-16.1 62-62.1 105.8-123.9 118.1-7 1.4-13.8 1.8-30.5 1.8-19.2-.1-22.5-.3-31-2.4-23.9-6-41.7-17.3-55.2-35-13.2-17.5-19.4-41.9-16.9-66.7 1.2-11.4 31.8-185.7 35.3-200.9 11.5-49.5 39.7-82.2 82-94.9 23.3-7 51.4-8.8 77.8-4.9zM3929 1302c-60.7 3.6-111.8 19-153.1 46.1-16.3 10.7-25 17.8-39.5 32.3-20.4 20.5-33.8 39.2-47 65.6-11 22.2-20.1 48-25.8 73.5-2.2 9.7-31.6 176.9-34.6 196.5-1.8 11.9-2.4 49.9-1.1 62 5.3 45.7 24.6 82 58.1 108.9 35.1 28.3 80.7 44.3 139.5 49.2 21.2 1.7 70.9.6 90.4-2 117.5-16.1 196.5-82.1 226.6-189.6 3-10.7 8.5-35 8.5-37.5 0-.7-23.3-1-65.9-1h-65.9l-1.6 7.7c-13.2 61.8-54.5 99.4-118.3 107.8-14.8 1.9-41.2 1.9-55.3 0-43.4-6.1-72.5-28.3-81.1-62-2.5-10.2-3.5-27.5-2-38.9 2.1-17.1 35.1-200.4 37.7-209.2 16.3-56.7 64-91.2 131.6-95.3 14.5-.9 35 0 45.8 1.9 48.3 8.4 74.6 35.9 76.7 80 .5 10.1-.7 25.9-2.4 32.7l-.5 2.3h66c62.1 0 66.1-.1 66.6-1.8 1.5-4.9 3.8-26.5 4.3-40.2 1.5-41.1-7.3-75.5-26.8-105-7.6-11.5-27.6-31.8-39.6-40.3-33.7-23.9-76.1-38.2-126.3-42.6-17.3-1.5-48.7-2-65-1.1zM4678.5 1302c-67.9 4.1-122.8 22.6-168 56.5-50.2 37.6-83.5 94.2-97.9 166-5.1 25.5-32.7 185.2-34.1 197.5-1.9 15.8-1.9 46.3 0 60.1 5.1 38.7 21.3 71.7 47 95.7 33.2 31.1 75.2 49.1 133 56.9 19.1 2.6 81.3 2.6 100.5 0 30.9-4.2 56.9-10.7 80.8-20.3 83.6-33.5 137.3-100 158.6-196.4 2.4-10.6 29-159.1 33.5-186.8 6.6-40.2 4.6-76.9-5.9-108.3-11.2-33.8-33.1-61.2-66-82.9-23.6-15.5-56.1-27.5-90.3-33.5-23.9-4.1-64.5-6.1-91.2-4.5zm42.8 115.6c41.7 5.7 70.1 27.3 78.9 59.9 1.7 6.6 2.1 10.8 2.1 23.5v15.5l-18.1 100.5c-10 55.3-19.2 104.4-20.6 109.1-6.5 22.4-15.5 38.6-30.1 53.8-20.6 21.7-45.3 34.3-79.6 40.7-13.1 2.5-46.7 3-60.5 1-29.3-4.3-47.8-12.8-63.5-29.3-15.6-16.4-22.5-38.8-20-64.8.9-9 31.9-186.4 35.8-204.5 3.8-18.1 12.4-38.9 21.6-52.5 5.9-8.6 20.6-23.5 29-29.3 21.8-15 48.5-23.3 81.2-25.1 16-.9 29.6-.4 43.8 1.5zM7321.4 1302.1c-69.1 4-128.7 28.4-170.4 69.9-34.3 34.2-58.9 82.6-71.4 141-2.2 10-72.6 409.9-72.6 412.2 0 .4 29.7.8 65.9.8h65.9l.6-2.7c.3-1.6 16.8-94.6 36.6-206.8 19.8-112.2 36.5-205.8 37.1-208 11.5-45.2 36.6-74.1 74.9-86.3 26.6-8.5 65.7-8.6 89.2-.3 34.8 12.4 49.8 44.3 43.3 92.1-1.3 9.5-69.7 404.4-71 409.7l-.5 2.3h133.5l34.9-200.8c19.2-110.4 35.8-205 36.8-210.2 10.1-50.3 39.1-83.6 82.4-94.5 13.5-3.5 23.7-4.6 40.9-4.6 32.4 0 52.8 6.6 68.6 22.2 15 14.8 21.8 39.2 19 67.8-.7 6.2-17.1 103.1-36.6 215.2s-35.5 204.1-35.5 204.4c0 .3 29.7.5 65.9.5h65.9l.6-2.7c1.7-8.4 68.9-400.4 70.3-410.1 2.6-18.2 2.3-59-.5-74.2-8.5-45.9-29-77.6-66.2-102.3-24.7-16.3-55.5-27.1-92-32.2-40.5-5.6-90.5-3.4-128.5 5.7-33.3 7.9-65.4 22.5-89.6 40.7l-7.5 5.7-8-6.8c-33.7-29.1-77.3-44.4-136.4-47.8-19.4-1.1-25.1-1.1-45.6.1zM8432.5 1302c-79.1 4.9-142.1 30.4-189.3 76.4-37.7 36.7-62.6 84.5-75.7 144.9-3.2 15-32.1 180.1-34 194.3-9.2 69.8 8.4 126.3 51 163.7 32.8 28.8 74.1 45.8 129.6 53.3 15.6 2.1 69.6 3 88.3 1.5 63.8-5.3 113.3-22.5 154.6-53.7 41-31 71.9-78 89.5-136.1 1.9-6.5 3.8-12.6 4.1-13.6.5-1.6-3.1-1.7-66.3-1.7h-66.9l-1.8 5.8c-5 15.6-15.8 34.1-27.2 46.2-25.2 26.8-61.9 40-111.4 40-34.5 0-59.9-6.1-78.6-18.7-3.3-2.2-9.1-7.4-13.1-11.6-15.5-16.3-22.9-40.6-20.4-67.1 1-10.4 9.8-64.2 10.7-65.8.3-.4 87.8-.8 194.4-.8h194l.5-2.3c1.1-4.9 21.7-122.7 23.1-132.1 2.1-14.2 3-49.6 1.5-62.6-7.1-62.3-39.1-106.4-97.2-134.4-26.9-13-54.7-20.4-90.6-24.1-18.1-1.8-51.2-2.6-68.8-1.5zm42.6 115.6c14.9 2 24.9 4.8 35.8 10 18.1 8.5 30.6 19.9 38 34.7 5.9 11.8 7.3 18 7.8 34.8.5 15.6.1 19.7-4.9 45.6l-3.1 16.3h-127.9c-121.4 0-127.9-.1-127.4-1.8.2-.9 2.1-10.3 4.1-20.7 7.4-38.3 17.6-59.7 37.9-80.1 24.3-24.4 58.4-38.3 99.1-40.3 16.6-.8 27.3-.4 40.6 1.5zM9186.5 1302.1c-67 3.7-122.2 22.3-168 56.4-43.7 32.6-74.1 79-91.4 139.4-5.5 19.4-5.6 19.8-42.6 231.6-18.4 105.6-33.7 193-34 194.2l-.5 2.3h133.5l34.3-198.3c18.9-109 35.5-202.9 36.9-208.7 6.2-25.8 16.7-46.2 32.4-62.4 9.6-10.1 15.9-15.1 26.5-21.1 23.6-13.5 50.5-19.5 87.1-19.5 27.5 0 46.5 3.4 63.8 11.4 14.6 6.8 28.5 18.5 35.4 30.1 9.3 15.4 13 36.7 10 58.2-.9 6.9-69 400.6-70.5 407.6l-.6 2.7H9371l.5-2.3c1.6-6.8 68.7-393.3 70.1-403.7 2.4-17.2 2.4-50.5.1-65.5-6-38.8-20.5-67.6-46.8-92.9-37.6-36.3-90-55.7-160.4-59.6-20.8-1.1-27.1-1.1-48 .1zM10620 1302.1c-55.1 2.9-104.1 16.7-144.8 40.7-59.8 35.5-98.5 90.2-117.7 166.5-3 12.1-20 105.7-33.5 185.2-7.4 43.6-7.9 71-1.9 101 13.3 65.9 63.8 113.4 141.1 132.4 26.4 6.5 51 9.1 86.8 9.1 60.4 0 104.2-9 148.7-30.5 72.5-35.1 118.9-95.8 139.8-182.8 3.1-13.1 32.6-176.7 36.1-199.9 2.1-14.7 2.9-46.9 1.5-60.3-5.8-53.6-28.9-92.7-72-121.6-35.6-24-78.7-36.6-136.1-39.9-19.3-1.1-26.5-1.1-48 .1zm42.3 115.5c35.6 4.9 62.4 21.4 74.2 45.9 5.9 12.3 6.9 17.9 6.9 37.5v17.5l-17.7 98.5c-9.8 54.2-18.7 101.9-19.8 106-14.2 53.1-52.5 86.9-110.4 97.6-14.3 2.6-55 2.7-67.9.1-40-8.1-64.8-27.9-73.6-58.7-3-10.6-3.8-31.1-1.6-44.5 6.3-38.6 35.1-196.8 37.1-204.3 11.8-42.6 37.9-72.3 76-86.5 27.5-10.3 63.6-13.6 96.8-9.1zM6480 1314.1c0 1.5-19 108.9-19.6 111.1-.5 1.7 3.3 1.8 69 1.8 44.5 0 69.6.4 69.6 1 0 .5-11.7 68.1-25.9 150.2-14.3 82.1-26.7 155.1-27.6 162.3-2.6 20-3.2 61.7-1 78.6 5.5 43.3 22.6 76 49 93.1 17.4 11.4 42.1 18.9 71.4 21.8 15.1 1.5 52 1.2 72.1-.5 14.6-1.3 58.9-7.1 59.6-7.8.2-.2 18.1-109.1 18-109.3-.1-.1-5.9.5-13.1 1.3-19.4 2.3-62.3 2.3-74.1 0-28.4-5.4-41.9-16.2-48-38.4-2.1-7.7-2.9-28.7-1.5-40.4.9-7.6 72.8-415.8 74.6-423.7l.5-2.2h-136.5c-98.7 0-136.5.3-136.5 1.1zM9685.5 1315.2c-.8 3.7-19.5 109.5-19.5 110.7 0 .8 22.3 1.1 77.1 1.1h77.1l-.6 3.2c-1.8 10.2-49.2 280.6-51.2 292-1.3 7.5-3 20.2-3.9 28.2-1.7 16.7-2 51.7-.5 65.1 5.1 44 22.6 78.6 48.9 96.4 34 23.1 92.9 30.2 173.3 21.1 14.4-1.7 50-6.8 50.4-7.3.5-.6 17.7-108.7 17.3-109-.2-.3-5.3.1-11.4.8-29.9 3.5-62.5 4.5-81.7 2.4-41.8-4.5-57.9-19.6-61.8-57.7-1.2-11.1-.1-30 2.6-45.7 6.8-40 50.6-288 51-288.7.3-.4 38.9-.8 85.8-.8h85.2l9.9-55.8c5.4-30.6 10-56.3 10.3-57 .3-.9-45.8-1.2-228.7-1.2H9686l-.5 2.2z"/>
</svg>
