<svg width="24" height="24" viewBox="0 0 24 24" fill="none" xmlns="http://www.w3.org/2000/svg">
<g clip-path="url(#clip0_1_1306)">
<path d="M10.1713 8.57054C10.5757 8.97493 10.8029 9.52341 10.8029 10.0953C10.8029 10.6672 10.5757 11.2157 10.1713 11.6201C9.76694 12.0245 9.21847 12.2516 8.64657 12.2516C8.07468 12.2516 7.5262 12.0245 7.12181 11.6201C6.71742 11.2157 6.49023 10.6672 6.49023 10.0953C6.49023 9.81213 6.54601 9.53173 6.65438 9.27011C6.76274 9.00849 6.92158 8.77078 7.12181 8.57054C7.32205 8.37031 7.55976 8.21147 7.82138 8.10311C8.083 7.99474 8.3634 7.93896 8.64657 7.93896C9.21847 7.93896 9.76694 8.16615 10.1713 8.57054" stroke="#732E76" stroke-width="0.718775" stroke-linecap="round" stroke-linejoin="round"/>
<path d="M2.41699 18.4805V6.06101C2.41699 4.98093 3.29294 4.10498 4.37302 4.10498H19.6676C20.1759 4.10498 20.6635 4.30692 21.0229 4.66638C21.3824 5.02584 21.5843 5.51336 21.5843 6.02171V18.4805C21.5843 18.9888 21.3824 19.4764 21.0229 19.8358C20.6635 20.1953 20.1759 20.3972 19.6676 20.3972H4.33373C3.82538 20.3972 3.33785 20.1953 2.97839 19.8358C2.61893 19.4764 2.41699 18.9888 2.41699 18.4805Z" stroke="#732E76" stroke-width="0.718775" stroke-linecap="round" stroke-linejoin="round"/>
<path d="M14.876 9.85547H18.7094" stroke="#732E76" stroke-width="0.718775" stroke-linecap="round" stroke-linejoin="round"/>
<path d="M17.1761 13.689H14.876" stroke="#732E76" stroke-width="0.718775" stroke-linecap="round" stroke-linejoin="round"/>
<path d="M12.0918 16.5637C11.8668 15.998 11.4771 15.5129 10.9732 15.1712C10.4693 14.8294 9.87444 14.6468 9.26561 14.647H8.0274C7.2607 14.647 6.52276 14.9364 5.9602 15.4578C5.62795 15.7652 5.36862 16.1431 5.20117 16.5637" stroke="#732E76" stroke-width="0.718775" stroke-linecap="round" stroke-linejoin="round"/>
</g>
<defs>
<clipPath id="clip0_1_1306">
<rect width="23.0008" height="23.0008" fill="white" transform="translate(0.5 0.750977)"/>
</clipPath>
</defs>
</svg>
