<svg xmlns="http://www.w3.org/2000/svg" width="6788" height="6040" version="1.0" viewBox="0 0 5091 4530" fill="#622565">
  <path d="M1729.9 1.2c-15.7 1.2-31.4 6.8-46.2 16.4-5.5 3.6-30.3 27.7-105.4 102.8l-98.3 98.1-97.2-97.1c-72.9-72.7-99.2-98.3-104.8-102.1-21.1-14.2-39.1-19-67.4-18-17.7.6-27.7 2.8-40.2 8.7-17.9 8.3-17.2 7.7-120.7 110.9L952 218.5 853.2 120c-90.1-89.9-99.5-99-107.6-103.9-19-11.7-33.7-15.6-56.4-14.8-21.5.6-35.9 5.1-54.9 16.9-10.7 6.6-29 24.2-36 34.8-26.7 40-26.7 85 0 121.4 4 5.4 37.7 39.9 101.8 104.1l95.9 96-185.7 185.7L424.5 746 327 648.6c-86.8-86.7-98.5-98-106.8-103.4-10.4-6.7-20.4-11.2-32-14.4-6.3-1.7-10.6-2.1-23.2-2.1-13.6 0-16.7.3-25.5 2.6-40.2 10.7-74.7 45-85.5 85.2-2.8 10.1-3.8 31.3-2 42.1 2.2 14.1 8.6 29.4 17.7 42.4 2.8 4 42.5 44.5 101.7 103.7l97.1 97.3-97.6 97.7c-73.1 73.3-98.7 99.6-102.1 104.8-13.9 21.3-18.6 39.5-17.5 67.5.8 22 5.3 36.4 16.9 54.2 5.4 8.3 16.9 20.1 103.2 106.6l97.1 97.2-97.6 97.8c-65.4 65.4-99 99.8-101.9 104.1-6.2 9.3-12.6 23.5-15 33.1-3 12.1-3.8 36.2-1.6 48.8 2.7 15.5 7.8 28.1 16.7 41.5 2.7 4 38.2 40.3 101.8 103.9l97.6 97.8-97.1 97.2C68.7 2157.2 68.2 2157.7 60 2175.3c-6.4 13.6-8.2 21.3-8.7 37.7-.4 11.9-.1 16.2 1.5 24.1 8.8 42.6 43 78.7 85.8 90.6 9.1 2.6 11.3 2.8 26.9 2.7 15.4 0 17.8-.3 25.6-2.7 11.6-3.5 18.1-6.5 28.1-12.8 7.2-4.5 21.2-18.1 106.8-103.6l98.5-98.3 186 186 186 186-97.6 97.7c-60.5 60.6-99.3 100.3-102.1 104.3-25.4 36.5-24.5 81.5 2.4 120.7 11.4 16.7 32.3 33.9 50.8 41.9 14.8 6.4 25.5 8.7 42 8.8 11.8 0 16.1-.4 23.2-2.2 14.7-3.7 26.1-9.2 39.3-19 3.3-2.5 49.2-47.6 102-100.3l96-95.9 185.8 185.8 185.7 185.7-95.6 95.5c-55.2 55.2-98.1 98.8-101.5 103.4-7.2 9.5-15.1 25.2-18 36.1-3 11-3.3 35.2-.5 47 12.9 55.5 67.3 96.6 121.1 91.4 18.3-1.7 32.8-7.2 49.5-18.7 4.1-2.9 42-39.9 103.8-101.6l97.2-97.1 185.8 185.8 185.7 185.7-96.1 96.2c-52.9 53-98.2 99.1-100.8 102.6-9.5 12.6-17 29.3-19.6 43.8-2.1 11.5-.9 33.8 2.4 44.9 12.6 42.7 48.1 75.7 90.8 84.6 13.1 2.7 31.9 2.3 44.3-1 9.7-2.6 24.6-9.6 33.4-15.8 4.1-2.8 44.3-42.2 104.1-101.9l97.5-97.4 186 186 186 186-16.1 16.2c-19.8 20.2-31.7 33-75.9 81.8-40.3 44.5-55.5 60.9-78.6 84.5-9.1 9.3-18.4 19.4-20.8 22.4-9.3 11.9-16.5 27.2-19.7 41.7-2.3 10.5-2.2 30.1.1 40.9 9.7 45.4 48.6 83.5 94.2 92.1 12.8 2.4 32.7 1.5 44.6-2 11.4-3.4 24.5-10 34.3-17.5 12.4-9.3 44.8-43 100.9-105.1 39.2-43.4 58.9-64.7 89.6-96.4l2.8-3 5.9 6.5c15.7 17.1 30.4 33.6 62.6 70.4 57.1 64.9 100.5 112.2 113.9 123.7 12.9 11.2 26.6 18.9 41.4 23.5 8.2 2.5 10 2.7 27.3 2.7s19.1-.2 27.5-2.7c37.7-11.5 67.7-39.8 80.8-76.4 3.8-10.4 5.7-22.1 5.7-34.5 0-12.7-1.9-22.8-6.4-35-5.9-15.8-11.8-23.6-39-52.2-29.4-30.8-49.8-53.3-93.1-102.6-34.6-39.5-55.4-62.8-64.8-72.8l-6-6.4 185.9-185.9 185.9-185.9 98 97.9c103.9 103.7 102.9 102.7 120.9 111.2 14.6 6.8 21.7 8.3 40.6 8.3 15 .1 17.4-.2 26.4-2.7 32.7-9.1 61.3-32.7 76.6-63.4 8-16.1 11.2-29.7 11.3-47.3 0-14.9-1.8-24.6-7.2-37.6-8.1-19.8-6.5-17.9-113-124.7l-97.6-97.7 185.8-185.7 185.7-185.8 97.2 97.1c72.8 72.6 99.2 98.3 104.8 102.1 19.4 13.1 35.8 18.4 57 18.4 6.4.1 14.5-.5 18-1.1 46.9-8.5 86.8-48 95.6-94.7 2.4-12.8 1.5-32.8-1.9-44.3-3.4-11.2-6.7-18.5-12.9-28.4-4.4-6.9-19-22-103.5-106.6l-98.3-98.5 186-186 186-186 98.2 98.1c65.8 65.7 100.4 99.5 104.7 102.4 9.4 6.3 23.5 12.7 33.7 15.2 12.4 3.1 33.2 3.1 45.5.1 11.9-3 21.1-6.6 30.4-12 32.5-18.7 54.2-49.1 60-84.3 4.2-24.6-1.6-49.8-16.6-72.3-2.7-4.1-37.8-39.9-102.3-104.5l-98.1-98.2 186-186 186-186 97.5 97.4c60.3 60.2 100 99.1 104.1 101.9 26.7 18.8 59.3 23.7 90 13.7 17.7-5.8 33.8-15.8 47.4-29.5 31.4-31.5 42.6-74.1 29.5-111.9-2.8-8.1-9.9-21.3-15.6-28.8-2.6-3.5-47.9-49.6-100.8-102.6l-96.1-96.2 98.1-98.3c105-105.1 104.3-104.3 111.4-121.4 6.5-15.6 7.4-20.7 7.4-43.8 0-23.1-.9-28.2-7.4-43.8-7.1-17.1-6.4-16.3-111.4-121.4l-98.1-98.3 97.1-97.2c99.7-100 102.4-102.9 110.2-118.3 4-8.2 7.8-20.3 9.2-30.4 1.8-12.2.8-37.3-2-47.6-2.7-10-9.5-24.7-15.6-33.4-2.9-4.1-41.4-43.3-101.8-103.8l-97.1-97.3 98.1-98.2c104.7-104.9 103.4-103.6 111.5-121.4 9.1-20 10.7-46 4.3-68.1-11.4-39.4-45.2-72.4-84.9-83-8.8-2.3-11.9-2.6-25.5-2.6-12.6 0-16.9.4-23.2 2.1-11.6 3.2-21.6 7.7-32 14.4-8.3 5.4-20 16.8-106.8 103.4l-97.5 97.4-185.7-185.7L4274 374.5l97.4-97.5c86.6-86.8 98-98.5 103.4-106.8 6.7-10.4 11.2-20.4 14.4-32 1.7-6.3 2.1-10.6 2.1-23.2 0-13.6-.3-16.7-2.6-25.4-12.5-47-56.4-85-102-88.4-24.5-1.9-44.4 3.2-64.4 16.4-7.5 4.9-22.9 19.8-106.6 103.3l-97.7 97.6-97.3-97.1C3960.2 61 3921 22.5 3916.9 19.6c-9.1-6.3-23.8-13.1-33.9-15.6-10.9-2.8-35.2-3.8-47.1-2-10.1 1.4-22.2 5.1-30.4 9.2-15.3 7.7-18.4 10.6-118.3 110.2l-97.2 97.1-98.3-98.1c-75.2-75.2-99.9-99.2-105.4-102.8-9-5.9-19.7-10.9-29.4-13.6-9.5-2.8-31.5-3.8-42.6-2-23.7 3.8-47.7 17-65.6 36-38.1 40.5-42.7 95.4-11.5 137.5 2.8 3.8 48.3 50.2 101 103l95.8 96-185.8 185.7L3062.5 746l-98-97.9c-74.2-74.1-99.7-98.9-105-102.3-9.7-6.3-17.6-10.1-27.4-13.2-48.6-15.3-105.4 11.2-130.9 61.2-9.4 18.3-12.8 33.7-11.9 53.4.6 14.3 3 24.4 8.7 36.5 8.2 17.6 8.7 18.1 111.4 121.1l97.1 97.2-185.8 185.8-185.7 185.7-185.7-185.7L2163.5 902l97.6-97.7c73.8-74 98.7-99.5 102.1-104.8 6.6-10.1 11.4-20.2 14.5-30.2 2.5-8.1 2.7-10.1 2.7-26.3 0-15-.3-18.7-2.2-25.7-11.2-41.3-44.6-74.7-85.7-85.9-8.9-2.4-11.7-2.7-25.5-2.7-17.2 0-23.9 1.3-38.6 7.4-18.4 7.7-17.9 7.2-123.4 112.5l-97.5 97.4-185.7-185.8L1636 374.5l96.8-97c102.2-102.4 102.7-103 111.2-120.7 18.5-38.5 9.6-84.9-22.7-118.9-25.4-26.7-56.9-39.4-91.4-36.7zM1286.5 304l70 70-70.3 70.3-70.2 70.2-70.2-70.2-70.3-70.3 70-70c38.5-38.5 70.2-70 70.5-70 .3 0 32 31.5 70.5 70zm2638.3 140.7-70.3 70.3-70.2-70.2-70.3-70.3 70.2-70.2 70.3-70.3 70.2 70.2 70.3 70.3-70.2 70.2zM1049.5 627.8c82.1 82.1 98.3 97.8 105.6 102.5 10.9 7.2 19.9 11.3 31.9 14.5 8.7 2.3 11.2 2.6 29 2.6s20.3-.3 29-2.6c12-3.2 21-7.3 31.9-14.5 7.3-4.7 23.5-20.5 105.9-102.7l97.2-97.1 185.8 185.8L1851.5 902l-97.1 97.2c-61.4 61.5-98.8 99.7-101.6 103.8-9.5 13.7-15.3 27.2-17.8 41.6-2.1 11.6-.9 33.9 2.4 44.9 16.9 56.4 73.5 94.4 126.7 85 16.8-2.9 30.4-9 44.9-19.9 5.4-4.1 42.8-40.8 103.5-101.5l95-95.1 185.7 185.7 185.8 185.8-96.3 96.5c-54.6 54.6-98.6 99.5-101.5 103.5-7.2 9.7-13.8 23.6-16.9 35.2-2.3 8.5-2.6 11.8-2.6 24.8s.3 16.3 2.6 24.9c3.4 12.6 11.7 29.8 19.4 40.1 33 44.2 88 60.8 132.8 40.1 16.9-7.8 17.5-8.4 120.7-111.5l97.8-97.6 97.7 97.6c104.1 103.9 104.2 104 121.6 111.9 27.4 12.4 58.9 11.2 88.2-3.5 19.4-9.7 35.1-23.5 46.9-41.3 25.2-37.9 26.1-80 2.4-116.4-5.4-8.3-16.8-20-103.4-106.8l-97.4-97.5 185.8-185.8 185.7-185.7 97.5 97.4c86.8 86.6 98.5 98 106.8 103.4 16.1 10.5 31.9 15.8 49.8 16.9 42.5 2.5 86.1-23.8 107.2-64.7 9.2-17.7 12.4-30.5 12.5-49.5 0-20.8-4.8-36.9-16.5-54.8-5.3-8.1-17.4-20.7-103.6-107l-97.7-97.7L3404 716.5c102-102 185.7-185.5 186-185.5.3 0 40.3 39.9 89 88.6 48.7 48.7 93.1 92.8 98.7 97.9 22.8 20.8 41.8 29 69.9 30.2 21.6 1 40.1-2.5 55.6-10.3 14.6-7.4 18.5-11 117.6-109.8l97.2-97.1 185.7 185.8L4489.5 902l-97.1 97.2c-82.3 82.5-98 98.6-102.7 105.9-7.2 11-11.3 19.9-14.5 31.9-2.2 8.4-2.5 11.6-2.6 28-.1 14.8.3 20.1 1.8 26.5 3.5 15 9.5 27.6 19.4 41 2.5 3.3 47.3 48.9 99.6 101.3s95.3 95.5 95.5 95.8c.3.2-43.4 44.4-97 98.2-100 100.1-101.8 102.1-109.4 117.2-6.9 13.6-10.5 30.4-10.5 48.5 0 25.5 6.7 46.5 20.9 65.1 3.5 4.6 46 47.9 101.4 103.3l95.5 95.4-185.9 186.1-185.9 186.1-98.8-98.6c-105.9-105.8-104.4-104.4-122.1-111.9-13.8-5.9-22.1-7.5-39.1-7.4-16.9.1-22.9 1.2-38.6 7.3-41.6 16-72.8 58.3-75.1 101.6-1.1 21.8 4.8 42.2 17.8 61.8 2.7 4 38.3 40.4 102.2 104.4l98.1 98.2-182.4 182.4c-100.4 100.3-184.2 183.9-186.3 185.7l-3.8 3.3-98.7-98.4c-90-89.7-99.5-98.9-107.5-103.8-16.5-10.1-33.8-15.1-52.5-15.1-12.4 0-24 1.9-34.5 5.7-39.5 14-69.4 48-78.3 88.6-2.1 9.5-2.1 29.9 0 39.2 3.2 14.7 10.1 29.7 19.2 41.7 2.6 3.5 47.9 49.6 100.7 102.5l96.1 96.2-185.8 185.7-185.8 185.7-97.6-97.5c-105.3-105.1-104.4-104.3-123-112.3-13-5.7-23.7-7.8-38.7-7.8-25.8.1-46.9 7.6-69 24.8-23.6 18.3-40.6 46.7-44.6 74.4-1.6 11.1-.7 29.4 2 39.6 2.8 11.1 11.7 28.4 19.5 38 3.6 4.4 49 50.5 100.9 102.4l94.4 94.3-185.1 185.4c-101.8 102-185.6 185.4-186.1 185.4-.6 0-84.5-83.5-186.5-185.5L2163.5 3540l97.1-97.2c60.1-60.2 98.9-99.8 101.7-103.9 6.5-9.2 12.1-20.8 15.2-31.4 3.3-11.1 4.5-30.2 2.5-42.3-5.8-36.3-31.4-70.4-65.5-87.2-40.2-19.7-82-14.2-115.3 15.1-4.8 4.2-49.9 48.9-100.2 99.3l-91.5 91.6-185.7-185.7-185.8-185.8 97.4-97.5c82.8-83 98.1-98.8 103-106.2 20.9-31.8 22.9-68.4 5.6-103.3-16.9-34.2-50.9-59.7-87.2-65.5-12.1-2-31.2-.8-42.3 2.5-10.6 3.1-22.2 8.7-31.4 15.2-4.1 2.8-43.7 41.6-103.9 101.7l-97.2 97.1-185.7-185.7-185.8-185.8 96.1-96.2c56.9-57.1 98.1-99.2 101.1-103.3 23.2-32 26.6-70.3 9.5-105.8-16-33-44.6-56.7-79.8-65.8-12.7-3.3-35-3.3-47.4 0-10 2.6-24.1 9.1-33.1 15.1-4.3 2.9-38.8 36.6-104.4 102.1l-98 97.9-186-186-186-186 97.6-97.7c65.4-65.5 99-99.9 101.9-104.2 6.3-9.4 12.6-23.5 15.2-33.7 1.9-7.6 2.2-11.6 2.2-27.9.1-16.5-.2-20.2-2.2-27.9-2.6-10.2-8.9-24.3-15.2-33.7-2.9-4.3-36.5-38.7-101.9-104.1l-97.6-97.8 97.1-97.2c86.3-86.5 97.8-98.3 103.2-106.6 11.6-17.8 16.1-32.2 16.9-54.2 1.1-28-3.6-46.2-17.5-67.5-3.4-5.2-29-31.5-102.1-104.8L580.5 902 766 716.5C868 614.5 951.7 531 952 531c.2 0 44.1 43.6 97.5 96.8zm-554.7 607.9-70.3 70.3-70.2-70.2-70.3-70.3 70.2-70.2 70.3-70.3 70.2 70.2 70.3 70.3-70.2 70.2zm4221.5-139.9 69.7 69.7-70.3 70.3-70.2 70.2-70-70-70-70 70-70c38.5-38.5 70.2-70 70.5-70 .3 0 31.9 31.4 70.3 69.8zM494.8 1763.7l-70.3 70.3-70.2-70.2-70.3-70.3 70.2-70.2 70.3-70.3 70.2 70.2 70.3 70.3-70.2 70.2zm4221 0-70.3 70.3-70.2-70.2-70.3-70.3 70.2-70.2 70.3-70.3 70.2 70.2 70.3 70.3-70.2 70.2z"/>
</svg>
